<?xml version="1.0" encoding="UTF-8"?>
<!DOCTYPE svg PUBLIC "-//W3C//DTD SVG 1.1//EN" "http://www.w3.org/Graphics/SVG/1.1/DTD/svg11.dtd">
<svg version="1.2" xmlns="http://www.w3.org/2000/svg" xmlns:xlink="http://www.w3.org/1999/xlink" x="0" y="0" width="305" height="290" viewBox="0 0 305 290">
<style type="text/css"><![CDATA[
text { font:12px Dialog; }
]]></style>
<rect x="-1059" y="-1119" width="2550" height="2520" style="fill:rgb(255,255,255);stroke:none" />
<clipPath id="clip1"><path d="M15,15 L290,15 L290,275 L15,275 Z M26,118 C21.5817184,118 18,121.5817184 18,126 L18,171 C18,175.4182739 21.5817184,179 26,179 L152,179 C156.4182739,179 160,175.4182739 160,171 L160,126 C160,121.5817184 156.4182739,118 152,118 Z M26,118" /></clipPath>
<path d="M112.301239,118 C123.567627,73.7587967 140.4672241,51.6381912 163,51.6381912" style="fill:none;stroke:rgb(85,142,213)" clip-path="url(#clip1)" />
<clipPath id="clip2"><path d="M15,15 L290,15 L290,275 L15,275 Z M26,118 C21.5817184,118 18,121.5817184 18,126 L18,171 C18,175.4182739 21.5817184,179 26,179 L152,179 C156.4182739,179 160,175.4182739 160,171 L160,126 C160,121.5817184 156.4182739,118 152,118 Z M26,118" /></clipPath>
<path d="M160,132.8745728 C173.3333435,124.0715256 193.3333435,119.6699982 220,119.6699982" style="fill:none;stroke:rgb(85,142,213)" clip-path="url(#clip2)" />
<clipPath id="clip3"><path d="M15,15 L290,15 L290,275 L15,275 Z M26,118 C21.5817184,118 18,121.5817184 18,126 L18,171 C18,175.4182739 21.5817184,179 26,179 L152,179 C156.4182739,179 160,175.4182739 160,171 L160,126 C160,121.5817184 156.4182739,118 152,118 Z M26,118" /></clipPath>
<path d="M160,170.2271118 C172.6666565,181.8556976 191.6666565,187.6699982 217,187.6699982" style="fill:none;stroke:rgb(85,142,213)" clip-path="url(#clip3)" />
<clipPath id="clip4"><path d="M15,15 L290,15 L290,275 L15,275 Z M26,118 C21.5817184,118 18,121.5817184 18,126 L18,171 C18,175.4182739 21.5817184,179 26,179 L152,179 C156.4182739,179 160,175.4182739 160,171 L160,126 C160,121.5817184 156.4182739,118 152,118 Z M26,118" /></clipPath>
<path d="M109.7754059,179 C121.380867,230.1133423 138.7890625,255.6699982 162,255.6699982" style="fill:none;stroke:rgb(85,142,213)" clip-path="url(#clip4)" />
<clipPath id="clip5"><path d="M14,114 L165,114 L165,184 L14,184 L14,114 Z" /></clipPath>
<path d="M26,118 C21.5817184,118 18,121.5817184 18,126 L18,171 C18,175.4182739 21.5817184,179 26,179 L152,179 C156.4182739,179 160,175.4182739 160,171 L160,126 C160,121.5817184 156.4182739,118 152,118 Z M26,118" style="fill:rgb(220,230,242);stroke:none" clip-path="url(#clip5)" />
<clipPath id="clip6"><path d="M14,114 L165,114 L165,184 L14,184 L14,114 Z" /></clipPath>
<path d="M26,118 C21.5817184,118 18,121.5817184 18,126 L18,171 C18,175.4182739 21.5817184,179 26,179 L152,179 C156.4182739,179 160,175.4182739 160,171 L160,126 C160,121.5817184 156.4182739,118 152,118 Z M26,118" style="fill:none;stroke:rgb(85,142,213);stroke-width:5" clip-path="url(#clip6)" />
<clipPath id="clip7"><path d="M50,134 L129,134 L129,164 L50,164 L50,134 Z" /></clipPath>
<path d="M56.632,140.8639984 L55.3540001,142.0879974 C56.5960007,143.0240021 57.5680008,143.923996 58.2699966,144.7519989 L59.5479965,143.4559937 C58.7559967,142.5919952 57.7839966,141.7279968 56.632,140.8639984 Z M54.237999,145.9759979 L54.237999,147.776001 L56.5599976,147.776001 L56.5599976,154.0939941 C56.5599976,154.4900055 56.3979988,154.8320007 56.0919991,155.102005 L56.8120003,156.7940063 C58.1439972,155.9299927 59.4039993,154.9759979 60.5919991,153.8959961 L60.0699997,151.9160004 C59.4759979,152.473999 58.9179993,152.9779968 58.3959999,153.4459991 L58.3959999,145.9759979 Z M60.6819992,148.1360016 L60.6819992,149.9360046 L61.7080002,149.9360046 C62.1399994,151.3399963 62.9499969,152.6000061 64.1019974,153.7519989 C62.8059998,154.5800018 61.2399979,155.2640076 59.3860016,155.8040009 L60.4300003,157.3880005 C62.4819984,156.7940063 64.1920013,156.0019989 65.5960007,155.0119934 C66.7839966,155.8939972 68.2779999,156.6860046 70.0419998,157.4060059 L71.0500031,155.7859955 C69.447998,155.2279968 68.0979996,154.5980072 66.9819946,153.878006 C68.1340027,152.7440033 68.961998,151.3939972 69.4660034,149.845993 L69.4660034,148.1360016 Z M63.4720001,149.9360046 L67.576004,149.9360046 C67.0719986,150.9799957 66.3699951,151.897995 65.4519958,152.7259979 C64.5159988,151.897995 63.868,150.9620056 63.4720001,149.9360046 Z M61.9059982,141.1699982 L61.9059982,143.6179962 C61.9059982,144.7879944 61.132,145.6880035 59.6199989,146.3179932 L60.8799973,147.7579956 C62.788002,146.75 63.7600021,145.2920074 63.7600021,143.4199982 L63.7600021,142.9340057 L66.5319977,142.9340057 L66.5319977,145.3280029 C66.5319977,146.5879974 67.197998,147.2180023 68.5479965,147.2180023 L70.5999985,147.2180023 L70.5999985,145.5079956 L69.052002,145.5079956 C68.6019974,145.5079956 68.3860016,145.2920074 68.3860016,144.8959961 L68.3860016,141.1699982 Z M77.9079971,145.8139954 L77.9079971,147.6860046 L82.552002,147.6860046 L82.552002,157.3339996 L84.4960022,157.3339996 L84.4960022,147.6860046 L88.9059982,147.6860046 L88.9059982,145.8139954 L84.4960022,145.8139954 L84.4960022,140.5939941 L82.552002,140.5939941 L82.552002,145.8139954 Z M74.7399979,140.7380066 L73.4079971,142.0339966 C74.685997,142.9700012 75.6760025,143.852005 76.3600006,144.6799927 L77.6559982,143.3659973 C76.8460007,142.5019989 75.8740005,141.6199951 74.7399979,140.7380066 Z M72.237999,145.9400024 L72.237999,147.7400055 L74.7040024,147.7400055 L74.7040024,154.1300049 C74.7040024,154.5079956 74.5419998,154.8320007 74.2180023,155.102005 L74.9380035,156.7940063 C76.2699966,155.9299927 77.512001,154.9580078 78.6819992,153.878006 L78.1959991,151.9519958 C77.6019974,152.5099945 77.0439987,153.0140076 76.5220032,153.4640045 L76.5220032,145.9400024 Z M95.8180008,141.9799957 L95.8180008,143.6360016 L98.1760025,143.6360016 L98.1760025,144.697998 L99.9219971,144.697998 L99.9219971,143.6360016 L102.2799988,143.6360016 L102.2799988,144.697998 L104.0439987,144.697998 L104.0439987,143.6360016 L106.6360016,143.6360016 L106.6360016,141.9799957 L104.0439987,141.9799957 L104.0439987,140.6840057 L102.2799988,140.6840057 L102.2799988,141.9799957 L99.9219971,141.9799957 L99.9219971,140.6840057 L98.1760025,140.6840057 L98.1760025,141.9799957 Z M100.9660034,153.8959961 C101.9380035,155.2819977 103.5039978,156.4340057 105.6279984,157.3699951 L106.9059982,155.8580017 C105.0699997,155.2460022 103.6839981,154.4539948 102.711998,153.5180054 L106.6719971,153.5180054 L106.6719971,151.826004 L101.7579956,151.826004 C101.8300018,151.5200043 101.8840027,151.1959991 101.9380035,150.871994 L105.5559998,150.871994 L105.5559998,145.0939941 L96.6279984,145.0939941 L96.6279984,150.871994 L100.2819977,150.871994 C100.2099991,151.1959991 100.1380005,151.5200043 100.0479965,151.826004 L95.4039993,151.826004 L95.4039993,153.5180054 L99.1839981,153.5180054 C99.1480026,153.5720062 99.0940018,153.6439972 99.0220032,153.7339935 C98.2659988,154.5980072 97.0240021,155.2819977 95.3139954,155.75 L95.961998,157.2980042 C98.0500031,156.6860046 99.526001,155.8580017 100.3539963,154.7960052 C100.5699997,154.5079956 100.7679977,154.2200012 100.9660034,153.8959961 Z M94.3420029,148.7120056 C94.7019958,149.3240051 95.1159973,150.0619965 95.5839996,150.9440002 L96.5739975,149.4499969 C95.8180008,148.423996 95.0619965,147.4880066 94.3420029,146.6419983 L94.3420029,145.7059937 L96.0339966,145.7059937 L96.0339966,143.9960022 L94.3420029,143.9960022 L94.3420029,140.7380066 L92.5780029,140.7380066 L92.5780029,143.9960022 L90.6879959,143.9960022 L90.6879959,145.7059937 L92.5780029,145.7059937 L92.5780029,145.8679962 C92.0559998,147.776001 91.2279968,149.4859924 90.1119995,150.9980011 L90.9219971,153.0859985 C91.5699997,151.9519958 92.1100006,150.7279968 92.5780029,149.4140015 L92.5780029,157.2259979 L94.3420029,157.2259979 Z M103.8639984,149.4680023 L98.302002,149.4680023 L98.302002,148.6759949 L103.8639984,148.6759949 Z M98.302002,147.3079987 L98.302002,146.5339966 L103.8639984,146.5339966 L103.8639984,147.3079987 Z M108.6520004,143.6360016 L108.6520004,145.4720001 L117.3099976,145.4720001 C117.4539948,147.595993 117.7060013,149.4859924 118.0839996,151.1060028 C119.1640015,155.102005 120.5859985,157.1719971 122.3679962,157.2799988 C123.4300003,157.2799988 124.2220001,155.9120026 124.762001,153.1940002 L123.0699997,152.3300018 C122.7639999,154.2019958 122.4940033,155.1560059 122.2420044,155.1560059 C121.7740021,155.1560059 121.1800003,154.147995 120.423996,152.1320038 C119.8479996,150.3320007 119.4519958,148.1000061 119.2539978,145.4720001 L124.473999,145.4720001 L124.473999,143.6360016 L122.223999,143.6360016 L123.3759995,143.0599976 C122.871994,142.1959991 122.3679962,141.404007 121.8280029,140.6840057 L120.2799988,141.4400024 C120.7839966,142.0879974 121.2700043,142.826004 121.7200012,143.6360016 L119.1459961,143.6360016 C119.0919952,142.6999969 119.0739975,141.6920013 119.0739975,140.647995 L117.1299973,140.647995 C117.1299973,141.673996 117.147995,142.6640015 117.2019958,143.6360016 Z M108.9039993,147.9380035 L108.9039993,149.7019958 L111.8560028,149.7019958 L111.8560028,153.9859924 C110.7399979,154.1660004 109.6060028,154.3280029 108.4720001,154.4539948 L108.9039993,156.2359924 C111.9100037,155.7859955 114.7360001,155.2460022 117.3820038,154.6159973 L117.3820038,152.7799988 C116.1759949,153.1040039 114.9519958,153.3919983 113.7279968,153.6439972 L113.7279968,149.7019958 L116.6800003,149.7019958 L116.6800003,147.9380035 Z M125.5359955,155.4080048" style="fill:rgb(55,96,146);stroke:none" clip-path="url(#clip7)" />
<clipPath id="clip8"><path d="M162,15 L287,15 L287,71 L162,71 Z M168,34 C165.2385712,34 163,36.2385712 163,39 L163,64 C163,66.7614288 165.2385712,69 168,69 L213,69 C215.7614288,69 218,66.7614288 218,64 L218,39 C218,36.2385712 215.7614288,34 213,34 Z M168,34" /></clipPath>
<path d="M230.9998322,51.7014923 C233.2220917,43.2338333 236.555481,39 241,39" style="fill:none;stroke:rgb(85,142,213)" clip-path="url(#clip8)" />
<clipPath id="clip9"><path d="M162,15 L287,15 L287,71 L162,71 Z M168,34 C165.2385712,34 163,36.2385712 163,39 L163,64 C163,66.7614288 165.2385712,69 168,69 L213,69 C215.7614288,69 218,66.7614288 218,64 L218,39 C218,36.2385712 215.7614288,34 213,34 Z M168,34" /></clipPath>
<path d="M230.9998322,51.7014923 C233.2220917,61.2338333 236.555481,66 241,66" style="fill:none;stroke:rgb(85,142,213)" clip-path="url(#clip9)" />
<clipPath id="clip10"><path d="M161,14 L288,14 L288,72 L161,72 L161,14 Z" /></clipPath>
<path d="M218,51.6368179 L230.9998322,51.7014923" style="fill:none;stroke:rgb(85,142,213)" clip-path="url(#clip10)" />
<clipPath id="clip11"><path d="M161,32 L221,32 L221,72 L161,72 L161,32 Z" /></clipPath>
<path d="M168,34 C165.2385712,34 163,36.2385712 163,39 L163,64 C163,66.7614288 165.2385712,69 168,69 L213,69 C215.7614288,69 218,66.7614288 218,64 L218,39 C218,36.2385712 215.7614288,34 213,34 Z M168,34" style="fill:rgb(220,230,242);stroke:none" clip-path="url(#clip11)" />
<clipPath id="clip12"><path d="M161,32 L221,32 L221,72 L161,72 L161,32 Z" /></clipPath>
<path d="M168,34 C165.2385712,34 163,36.2385712 163,39 L163,64 C163,66.7614288 165.2385712,69 168,69 L213,69 C215.7614288,69 218,66.7614288 218,64 L218,39 C218,36.2385712 215.7614288,34 213,34 Z M168,34" style="fill:none;stroke:rgb(85,142,213);stroke-width:2" clip-path="url(#clip12)" />
<clipPath id="clip13"><path d="M175,41 L207,41 L207,63 L175,63 L175,41 Z" /></clipPath>
<path d="M179.6384888,48.0934982 L179.6384888,53.4365005 L183.707489,53.4365005 L183.707489,54.6715012 L178.4035034,54.6715012 L178.4035034,55.5555038 L183.707489,55.5555038 L183.707489,58.0254974 L184.6434937,58.0254974 L184.6434937,55.5555038 L189.9475098,55.5555038 L189.9475098,54.6715012 L184.6434937,54.6715012 L184.6434937,53.4365005 L188.7124939,53.4365005 L188.7124939,48.0934982 L186.2164917,48.0934982 C186.6065063,47.5605011 186.957489,46.9625015 187.2695007,46.2994995 L186.3594971,45.9745026 C186.0345001,46.7285004 185.6575012,47.4435043 185.2415009,48.0934982 Z M187.8024902,52.6044998 L184.6434937,52.6044998 L184.6434937,51.1484985 L187.8024902,51.1484985 Z M183.707489,52.6044998 L180.5484924,52.6044998 L180.5484924,51.1484985 L183.707489,51.1484985 Z M180.5484924,50.3424988 L180.5484924,48.9124985 L183.707489,48.9124985 L183.707489,50.3424988 Z M184.6434937,48.9124985 L187.8024902,48.9124985 L187.8024902,50.3424988 L184.6434937,50.3424988 Z M181.9394989,46.0394974 L181.1464996,46.4165039 C181.588501,46.9104996 181.9915009,47.4564972 182.3815002,48.0804977 L183.161499,47.6904984 C182.7714996,47.0924988 182.3684998,46.5335007 181.9394989,46.0394974 Z M194.7705078,46.8195038 L194.7705078,47.7164993 L195.7845001,47.7164993 C195.5765076,50.0175018 194.9654999,51.8375015 193.9515076,53.1634979 L194.4194946,54.0735016 C194.7185059,53.6965027 194.9915009,53.2805023 195.2514954,52.8255005 C195.7845001,53.1634979 196.3305054,53.5924988 196.8764954,54.1255035 C196.2785034,55.399498 195.4595032,56.4004974 194.4194946,57.1155014 L194.8874969,57.9475021 C197.0195007,56.4915009 198.332489,53.9694977 198.8005066,50.3684998 L198.8005066,49.5625 L196.4085083,49.5625 C196.5254974,48.9775009 196.6165009,48.3665009 196.681488,47.7164993 L199.0475006,47.7164993 L199.0475006,46.8195038 Z M195.6285095,52.0585022 C195.8495026,51.5514984 196.0444946,51.0055008 196.2005005,50.4205017 L197.9295044,50.4205017 C197.7734985,51.4345016 197.5524902,52.3834991 197.240509,53.2415009 C196.73349,52.7994995 196.2005005,52.3964996 195.6285095,52.0585022 Z M201.4134979,57.8955002 C202.1934967,57.8955002 202.5964966,57.4925003 202.5964966,56.7125015 L202.5964966,46.1044998 L201.6604919,46.1044998 L201.6604919,56.4785004 C201.6604919,56.8684998 201.4654999,57.0634995 201.088501,57.0634995 C200.6725006,57.0634995 200.2434998,57.0374985 199.7754974,56.998497 L199.98349,57.8955002 Z M192.4564972,50.9404984 L192.4564972,58.0124969 L193.3925018,58.0124969 L193.3925018,49.3024979 C193.8345032,48.3925018 194.2115021,47.4305038 194.4974976,46.4035034 L193.6134949,46.0005035 C193.0935059,48.0155029 192.2615051,49.7965012 191.1174927,51.3564987 L191.4295044,52.3444977 C191.7934875,51.902504 192.1315002,51.4345016 192.4564972,50.9404984 Z M199.6065063,47.300499 L199.6065063,55.3605042 L200.4645081,55.3605042 L200.4645081,47.300499 Z M203.6755066,56.6865005" style="fill:rgb(23,55,94);stroke:none" clip-path="url(#clip13)" />
<clipPath id="clip14"><path d="M219,46 L232,46 L232,59 L219,59 L219,46 Z" /></clipPath>
<path d="M229.5,52 C229.5,49.5147171 227.4852753,47.5 225,47.5 C222.5147247,47.5 220.5,49.5147171 220.5,52 C220.5,54.4852829 222.5147247,56.5 225,56.5 C227.4852753,56.5 229.5,54.4852829 229.5,52 Z M229.5,52" style="fill:rgb(250,250,250);stroke:none" clip-path="url(#clip14)" />
<clipPath id="clip15"><path d="M219,46 L232,46 L232,59 L219,59 L219,46 Z" /></clipPath>
<path d="M229.5,52 C229.5,49.5147171 227.4852753,47.5 225,47.5 C222.5147247,47.5 220.5,49.5147171 220.5,52 C220.5,54.4852829 222.5147247,56.5 225,56.5 C227.4852753,56.5 229.5,54.4852829 229.5,52 Z M229.5,52" style="fill:none;stroke:rgb(85,142,213)" clip-path="url(#clip15)" />
<clipPath id="clip16"><path d="M219,46 L232,46 L232,59 L219,59 L219,46 Z" /></clipPath>
<path d="M223,52 L227,52" style="fill:none;stroke:rgb(150,160,200)" clip-path="url(#clip16)" />
<clipPath id="clip17"><path d="M238,14 L288,14 L288,42 L238,42 L238,14 Z" /></clipPath>
<path d="M241,39 L284,39 Z M241,39" style="fill:none;stroke:rgb(85,142,213);stroke-width:3" clip-path="url(#clip17)" />
<clipPath id="clip18"><path d="M250,19 L276,19 L276,37 L250,37 L250,19 Z" /></clipPath>
<path d="M255.6849976,25.8850021 L255.6849976,28.8349991 L256.7749939,28.8349991 C256.3349915,29.7550049 255.7350006,30.4850006 254.9949951,31.0350037 L255.375,31.6350021 C255.9449921,31.1149979 256.4249878,30.4349976 256.8150024,29.6149979 L256.8150024,32.5350037 L257.4349976,32.5350037 L257.4349976,29.5950012 C257.7550049,29.9550018 258.1350098,30.4449997 258.5849915,31.0650024 L258.9649963,30.4850006 C258.4550171,29.9850006 257.9450073,29.5350037 257.4349976,29.1350021 L257.4349976,28.8349991 L258.5050049,28.8349991 L258.5050049,25.8850021 L257.414978,25.8850021 L257.414978,25.0750046 L258.5750122,25.0750046 L258.5750122,24.4349976 L257.414978,24.4349976 L257.414978,23.4349976 L256.7949829,23.4349976 L256.7949829,24.4349976 L255.5149994,24.4349976 L255.5149994,25.0750046 L256.7949829,25.0750046 L256.7949829,25.8850021 Z M257.9849854,28.2350006 L257.3649902,28.2350006 L257.3649902,26.4850006 L257.9849854,26.4850006 Z M256.8649902,28.2350006 L256.2050171,28.2350006 L256.2050171,26.4850006 L256.8649902,26.4850006 Z M261.894989,25.8349991 L261.0449829,25.8349991 C261.2449951,25.5149994 261.4550171,25.1149979 261.6549988,24.6549988 L261.6549988,24.1750031 L260.0750122,24.1750031 C260.1549988,23.9550018 260.2349854,23.715004 260.3049927,23.465004 L259.6749878,23.3550034 C259.4749756,24.1750031 259.0750122,24.8250046 258.4949951,25.3150024 L258.914978,25.8349991 C259.2749939,25.5350037 259.5650024,25.1650009 259.8049927,24.7450027 L260.9749756,24.7450027 C260.7650146,25.1549988 260.5549927,25.5149994 260.3450012,25.8349991 L258.9849854,25.8349991 L258.9849854,30.5149994 L259.5650024,30.5149994 L259.5650024,26.4349976 L261.3150024,26.4349976 L261.3150024,30.4950027 L261.894989,30.4950027 Z M261.0449829,30.6650009 L260.5449829,30.9749985 C260.9849854,31.5750046 261.3250122,32.125 261.5849915,32.625 L262.125,32.2450027 C261.8649902,31.7949982 261.5050049,31.2649994 261.0449829,30.6650009 Z M260.1749878,27.0650024 L260.1749878,29.3950043 C260.1549988,30.6750031 259.625,31.5950012 258.5650024,32.1750031 L259.1049805,32.6450043 C260.1549988,31.9550018 260.6950073,30.875 260.7149963,29.3950043 L260.7149963,27.0650024 Z M255.125,25.2249985 L254.7449951,25.3450012 C254.9249878,26.0050049 255.0849915,26.6849976 255.2050018,27.3850021 L255.6049957,27.2949982 C255.4649963,26.5149994 255.3049927,25.8250046 255.125,25.2249985 Z M253.125,25.375 C253.1049957,26.3349991 253.0149994,27.2450027 252.8549957,28.1050034 L253.3049927,28.2249985 C253.4649963,27.3349991 253.5549927,26.3950043 253.5749969,25.4150009 Z M253.9449921,23.465004 L253.9449921,32.5350037 L254.6049957,32.5350037 L254.6049957,23.465004 Z M263.8349915,23.5750046 L263.3349915,24.0750046 C264.0750122,24.6350021 264.664978,25.1750031 265.0950012,25.6750031 L265.6049805,25.1650009 C265.125,24.6350021 264.5349731,24.1050034 263.8349915,23.5750046 Z M263.5950012,25.9150009 L263.0750122,26.4150009 C263.8250122,26.9550018 264.414978,27.465004 264.8450012,27.9449997 L265.3549805,27.4349976 C264.875,26.9250031 264.2949829,26.4150009 263.5950012,25.9150009 Z M264.9849854,28.6949997 C264.4949951,29.8950043 263.9249878,31.0750046 263.2650146,32.2249985 L263.9849854,32.5350037 C264.5950012,31.4150009 265.144989,30.2249985 265.6350098,28.9550018 Z M271.644989,32.5449982 L272.144989,31.965004 C271.0849915,31.2649994 270.2050171,30.4950027 269.4949951,29.6450043 C270.4649963,28.3050003 271.125,26.6750031 271.4749756,24.7550049 L271.4749756,24.125 L266.0349731,24.125 L266.0349731,24.8150024 L266.8349915,24.8150024 C266.9949951,26.5750046 267.5950012,28.1750031 268.6149902,29.6149979 C267.8349915,30.5750046 266.8450012,31.3649979 265.6549988,31.9850006 L266.125,32.5650024 C267.2650146,31.9449997 268.2449951,31.1549988 269.0650024,30.1949997 C269.7550049,31.0350037 270.6149902,31.8250046 271.644989,32.5449982 Z M269.0449829,29.0550003 C268.164978,27.7949982 267.6549988,26.375 267.5150146,24.8150024 L270.7349854,24.8150024 C270.4349976,26.4550018 269.8649902,27.8649979 269.0449829,29.0550003 Z M272.4949951,31.5950012" style="fill:rgb(0,0,0);stroke:none" clip-path="url(#clip18)" />
<clipPath id="clip19"><path d="M238,41 L288,41 L288,69 L238,69 L238,41 Z" /></clipPath>
<path d="M241,66 L284,66 Z M241,66" style="fill:none;stroke:rgb(85,142,213);stroke-width:3" clip-path="url(#clip19)" />
<clipPath id="clip20"><path d="M250,46 L276,46 L276,64 L250,64 L250,46 Z" /></clipPath>
<path d="M257.4000244,59.4950027 C257.9199829,59.4950027 258.1900024,59.2050018 258.1900024,58.6350021 L258.1900024,56.375 C258.5100098,56.2750015 258.8300171,56.1550064 259.1500244,56.0350037 L259.1500244,55.3450012 C258.8400269,55.465004 258.5200195,55.5750046 258.1900024,55.6850052 L258.1900024,54.0350037 L259.4500122,54.0350037 C259.480011,54.8950043 259.5299988,55.6450043 259.6099854,56.2850037 C259.6500244,56.6350021 259.7000122,56.965004 259.7700195,57.2850037 C259.3699951,57.765007 258.9100037,58.1350021 258.4100037,58.4150009 L258.7900085,59.015007 C259.2000122,58.7750015 259.5900269,58.465004 259.960022,58.0850067 C260.0200195,58.3250046 260.1000061,58.5450058 260.2000122,58.7550049 C260.4299927,59.2750015 260.7000122,59.5450058 261.0100098,59.5450058 C261.4199829,59.5450058 261.7700195,58.9350052 262.0700073,57.7350006 L261.5200195,57.2750015 C261.3500061,58.215004 261.1799927,58.7050018 261.0100098,58.7250061 C260.7999878,58.6949997 260.6099854,58.2850037 260.4400024,57.4950027 C260.960022,56.7850037 261.3900146,55.8950043 261.75,54.8150024 L261.1900024,54.5250015 C260.9400024,55.2950058 260.6400146,55.9750061 260.2799988,56.5550003 C260.2000122,55.8850021 260.1400146,55.0450058 260.1000061,54.0350037 L261.9299927,54.0350037 L261.9299927,53.3350067 L260.0800171,53.3350067 C260.0499878,52.4750061 260.0400085,51.5050049 260.0400085,50.4250031 L259.3800049,50.4250031 C259.3800049,51.4850006 259.3900146,52.4550018 259.4199829,53.3350067 L258.1900024,53.3350067 L258.1900024,51.6949997 C258.5400085,51.4950027 258.8500061,51.265007 259.1099854,50.9950027 L258.6000061,50.5750046 C258.1000061,51.0850067 257.3400269,51.4550018 256.3400269,51.6850052 L256.6000061,52.2950058 C256.9100037,52.215004 257.210022,52.125 257.4899902,52.015007 L257.4899902,53.3350067 L256.2799988,53.3350067 L256.2799988,54.0350037 L257.4899902,54.0350037 L257.4899902,55.8950043 C257.0299988,56.015007 256.5499878,56.125 256.0599976,56.215004 L256.230011,56.9050064 C256.6600037,56.8050003 257.0800171,56.7050018 257.4899902,56.5850067 L257.4899902,58.465004 C257.4899902,58.7350006 257.3800049,58.875 257.1600037,58.875 C256.9500122,58.875 256.730011,58.8550034 256.4899902,58.8250046 L256.6400146,59.4950027 Z M260.8099976,50.7850037 L260.3200073,51.1550064 C260.6900024,51.5650024 261.0599976,52.0550003 261.4400024,52.6150055 L261.9299927,52.2450027 C261.5800171,51.715004 261.210022,51.2250061 260.8099976,50.7850037 Z M254.3200073,52.7850037 L255.4600067,52.7850037 C255.2900085,53.1850052 255.1000061,53.5450058 254.8800049,53.8450012 L255.3800049,54.2350006 C255.6800079,53.8150024 255.9400024,53.2950058 256.1799927,52.6850052 L256.1799927,52.1450043 L254.5100098,52.1450043 C254.6300049,51.6750031 254.7400055,51.1650009 254.8200073,50.625 L254.1200104,50.5050049 C253.9000092,52.0950012 253.480011,53.3550034 252.8600006,54.2950058 L253.3100128,54.8450012 C253.7100067,54.2850037 254.0500031,53.6050034 254.3200073,52.7850037 Z M254.2700043,54.1050034 L254.2700043,58.4050064 C254.2700043,58.5850067 254.1900024,58.715004 254.0400085,58.7950058 L254.3300018,59.4050064 C255.0700073,59.125 255.7200012,58.7750015 256.2900085,58.3450012 L256.1500244,57.6750031 C255.75,58.015007 255.3500061,58.2850037 254.9500122,58.4850006 L254.9500122,54.1050034 Z M263.8300171,50.5850067 L263.3300171,51.0850067 C264.0700073,51.6450043 264.6600037,52.1850052 265.0900269,52.6850052 L265.6000061,52.1750031 C265.1199951,51.6450043 264.5299988,51.1150055 263.8300171,50.5850067 Z M263.5900269,52.9250031 L263.0700073,53.4250031 C263.8200073,53.965004 264.4100037,54.4750061 264.8400269,54.9550018 L265.3500061,54.4449997 C264.8699951,53.9350052 264.2900085,53.4250031 263.5900269,52.9250031 Z M264.980011,55.7050018 C264.4899902,56.9050064 263.9199829,58.0850067 263.2600098,59.2350006 L263.980011,59.5450058 C264.5900269,58.4250031 265.1400146,57.2350006 265.6300049,55.965004 Z M271.6400146,59.5550003 L272.1400146,58.9750061 C271.0800171,58.2750015 270.2000122,57.5050049 269.4899902,56.6550064 C270.460022,55.3150024 271.1199951,53.6850052 271.4700012,51.765007 L271.4700012,51.1350021 L266.0299988,51.1350021 L266.0299988,51.8250046 L266.8300171,51.8250046 C266.9899902,53.5850067 267.5900269,55.1850052 268.6099854,56.625 C267.8300171,57.5850067 266.8400269,58.375 265.6500244,58.9950027 L266.1199951,59.5750046 C267.2600098,58.9550018 268.2399902,58.1650009 269.0599976,57.2050018 C269.75,58.0450058 270.6099854,58.8350067 271.6400146,59.5550003 Z M269.0400085,56.0650024 C268.1600037,54.8050003 267.6500244,53.3850021 267.5100098,51.8250046 L270.730011,51.8250046 C270.4299927,53.465004 269.8599854,54.875 269.0400085,56.0650024 Z M272.4899902,58.6050034" style="fill:rgb(0,0,0);stroke:none" clip-path="url(#clip20)" />
<clipPath id="clip21"><path d="M218,100 L291,100 L291,140 L218,140 L218,100 Z" /></clipPath>
<path d="M225,102 C222.2385712,102 220,104.2385712 220,107 L220,132 C220,134.7614288 222.2385712,137 225,137 L283,137 C285.7614136,137 288,134.7614288 288,132 L288,107 C288,104.2385712 285.7614136,102 283,102 Z M225,102" style="fill:rgb(220,230,242);stroke:none" clip-path="url(#clip21)" />
<clipPath id="clip22"><path d="M218,100 L291,100 L291,140 L218,140 L218,100 Z" /></clipPath>
<path d="M225,102 C222.2385712,102 220,104.2385712 220,107 L220,132 C220,134.7614288 222.2385712,137 225,137 L283,137 C285.7614136,137 288,134.7614288 288,132 L288,107 C288,104.2385712 285.7614136,102 283,102 Z M225,102" style="fill:none;stroke:rgb(85,142,213);stroke-width:2" clip-path="url(#clip22)" />
<clipPath id="clip23"><path d="M232,109 L277,109 L277,131 L232,131 L232,109 Z" /></clipPath>
<path d="M245.9400024,114.585495 L240.5059967,114.585495 L240.5059967,121.7225037 L241.4029999,121.7225037 L241.4029999,115.4564972 L245.0429993,115.4564972 L245.0429993,121.7225037 L245.9400024,121.7225037 Z M245.7190094,125.7525024 C246.1350098,125.7525024 246.4470062,125.6484985 246.6549988,125.4404984 C246.8760071,125.2064972 247.0319977,124.5305023 247.1100006,123.425499 L246.2910004,123.1524963 C246.2389984,124.010498 246.1609955,124.5175018 246.0440063,124.699501 C245.9400024,124.8424988 245.7839966,124.9205017 245.5630035,124.9205017 L244.7180023,124.9205017 C244.4190063,124.9205017 244.276001,124.7644958 244.276001,124.4654999 L244.276001,121.7615051 L243.3919983,121.7615051 L243.3919983,124.6604996 C243.3919983,125.388504 243.7429962,125.7525024 244.4580078,125.7525024 Z M242.7680054,116.4055023 L242.7680054,118.9404984 C242.7290039,120.5654984 242.4430084,121.8785019 241.9230042,122.8925018 C241.3379974,123.8675003 240.3240051,124.6474991 238.8809967,125.2454987 L239.3880005,126.0384979 C240.8700104,125.4404984 241.9360046,124.6085052 242.5859985,123.5425034 C243.2620087,122.3984985 243.6130066,120.864502 243.6520081,118.9404984 L243.6520081,116.4055023 Z M235.9820099,117.0814972 L235.3450012,117.6925049 C236.2030029,118.7454987 236.9830017,119.7724991 237.6719971,120.7734985 C237.0740051,122.3334961 236.2160034,123.6725006 235.0980072,124.7904968 L235.6959991,125.4794998 C236.7880096,124.4004974 237.6459961,123.1394958 238.2700043,121.6835022 C238.7120056,122.3724976 239.128006,123.0615005 239.4920044,123.763504 L240.1549988,123.100502 C239.6999969,122.2945023 239.2060089,121.475502 238.6600037,120.6565018 C239.154007,119.213501 239.4400024,117.6015015 239.5180054,115.8074951 L239.5180054,115.0924988 L235.4360046,115.0924988 L235.4360046,116.0025024 L238.6470032,116.0025024 C238.5559998,117.3414993 238.3480072,118.5895004 238.0230103,119.7335052 C237.3990021,118.8495026 236.7100067,117.9654999 235.9820099,117.0814972 Z M249.5019989,121.8395004 L249.5019989,122.6715012 L253.5709991,122.6715012 L253.5709991,124.725502 C253.5709991,125.0115051 253.4410095,125.1675034 253.1809998,125.1675034 C252.7910004,125.1675034 252.401001,125.1415024 251.9850006,125.1025009 L252.1800079,125.986496 L253.4929962,125.986496 C254.1690063,125.986496 254.5070038,125.635498 254.5070038,124.9465027 L254.5070038,122.6715012 L258.4849854,122.6715012 L258.4849854,121.8395004 Z M250.5550079,118.1604996 C250.9580078,118.524498 251.3090057,118.888504 251.5950012,119.2525024 C251.3480072,119.486496 251.0879974,119.7205048 250.8150024,119.9284973 C250.529007,119.5254974 250.20401,119.1224976 249.8399963,118.7064972 C250.0740051,118.5374985 250.3209991,118.3554993 250.5550079,118.1604996 Z M252.076004,118.7324982 C251.7770081,118.3945007 251.4389954,118.0565033 251.048996,117.7184982 L251.2180023,117.5494995 L252.9340057,117.5494995 C252.673996,117.9654999 252.3880005,118.3554993 252.076004,118.7324982 Z M251.8679962,116.8475037 C252.0370026,116.6394958 252.2060089,116.4315033 252.3619995,116.210495 L251.5169983,116.0155029 C250.6719971,117.1464996 249.5800018,118.0695038 248.2539978,118.7714996 L248.7740021,119.3824997 C248.9430084,119.2785034 249.1119995,119.1744995 249.2940063,119.0705032 C249.6580048,119.486496 249.9830017,119.9024963 250.2559967,120.3184967 C249.6450043,120.6955032 248.9560089,121.0074997 248.2019958,121.2415009 L248.6179962,121.9824982 C249.8529968,121.5664978 250.9190063,120.9554977 251.82901,120.149498 L251.82901,120.7084961 L256.5090027,120.7084961 L256.5090027,120.149498 C257.276001,120.8775024 258.2640076,121.449501 259.460022,121.8915024 L259.8890076,121.1244965 C258.6929932,120.7084961 257.7050171,120.1235046 256.9379883,119.3824997 C257.4710083,118.8495026 257.9649963,118.199501 258.4199829,117.4455032 L258.4199829,116.8085022 L255.3390045,116.8085022 C255.2610016,116.574501 255.1959991,116.3404999 255.1439972,116.1064987 L254.4029999,116.3665009 C254.7019958,117.7705002 255.326004,118.9534988 256.2880249,119.9284973 L252.0630035,119.9284973 C252.7910004,119.2265015 253.4020081,118.4075012 253.8959961,117.4455032 L253.8959961,116.8475037 Z M256.1710205,123.1394958 L255.6900024,123.8414993 C256.8209839,124.3355026 257.9260254,125.024498 258.9920044,125.8955002 L259.4990234,125.1155014 C258.4979858,124.3355026 257.3930054,123.6855011 256.1710205,123.1394958 Z M251.4000092,123.0615005 C251.0230103,123.5035019 250.6200104,123.8935013 250.178009,124.2314987 C249.6580048,124.5955048 249.0859985,124.8815002 248.4490051,125.1155014 L248.9300079,125.8955002 C249.7100067,125.5315018 250.3339996,125.1675034 250.8150024,124.8164978 C251.2570038,124.4785004 251.6860046,124.036499 252.128006,123.5035019 Z M255.6380005,117.5625 L257.4060059,117.5625 C257.0939941,118.0175018 256.7689819,118.4335022 256.4049988,118.7975006 C256.0930176,118.4205017 255.8460083,118.0045013 255.6380005,117.5625 Z M259.3430176,114.975502 L254.6110077,114.975502 C254.4550018,114.5984955 254.3119965,114.260498 254.1560059,113.9615021 L253.1419983,114.1305008 C253.3240051,114.3905029 253.4799957,114.6634979 253.6360016,114.975502 L248.8910065,114.975502 L248.8910065,117.3544998 L249.7750092,117.3544998 L249.7750092,115.8204956 L258.4589844,115.8204956 L258.4589844,117.3935013 L259.3430176,117.3935013 Z M262.4760132,115.4174957 L262.4760132,116.2884979 L266.0380249,116.2884979 L266.0380249,117.8355026 L261.3190002,117.8355026 L261.3190002,118.7194977 L267.2340088,118.7194977 C265.3880005,119.7854996 263.3599854,120.5914993 261.1370239,121.111496 L261.5270081,121.9824982 C262.2810059,121.7355042 263.0090027,121.4885025 263.7109985,121.2285004 L263.7109985,126.0124969 L264.6600037,126.0124969 L264.6600037,125.4274979 L270.2890015,125.4274979 L270.2890015,126.0124969 L271.2250061,126.0124969 L271.2250061,120.1624985 L266.3110046,120.1624985 C267.0650024,119.8115005 267.7539978,119.4605026 268.3519897,119.0964966 C268.5469971,118.9664993 268.7420044,118.8495026 268.9370117,118.7194977 L272.9020081,118.7194977 L272.9020081,117.8355026 L270.1199951,117.8355026 C270.9909973,117.1334991 271.8099976,116.3144989 272.5769958,115.4044952 L271.8619995,114.8845062 C270.9389954,115.9765015 269.8599854,116.9645004 268.6380005,117.8355026 L267,117.8355026 L267,116.2884979 L270.0679932,116.2884979 L270.0679932,115.4174957 L267,115.4174957 L267,114.039505 L266.0380249,114.039505 L266.0380249,115.4174957 Z M264.6600037,123.1784973 L270.2890015,123.1784973 L270.2890015,124.5955048 L264.6600037,124.5955048 Z M270.2890015,122.3464966 L264.6600037,122.3464966 L264.6600037,120.9814987 L270.2890015,120.9814987 Z M273.5780029,124.6865005" style="fill:rgb(23,55,94);stroke:none" clip-path="url(#clip23)" />
<clipPath id="clip24"><path d="M215,168 L288,168 L288,208 L215,208 L215,168 Z" /></clipPath>
<path d="M222,170 C219.2385712,170 217,172.2385712 217,175 L217,200 C217,202.7614288 219.2385712,205 222,205 L280,205 C282.7614136,205 285,202.7614288 285,200 L285,175 C285,172.2385712 282.7614136,170 280,170 Z M222,170" style="fill:rgb(220,230,242);stroke:none" clip-path="url(#clip24)" />
<clipPath id="clip25"><path d="M215,168 L288,168 L288,208 L215,208 L215,168 Z" /></clipPath>
<path d="M222,170 C219.2385712,170 217,172.2385712 217,175 L217,200 C217,202.7614288 219.2385712,205 222,205 L280,205 C282.7614136,205 285,202.7614288 285,200 L285,175 C285,172.2385712 282.7614136,170 280,170 Z M222,170" style="fill:none;stroke:rgb(85,142,213);stroke-width:2" clip-path="url(#clip25)" />
<clipPath id="clip26"><path d="M229,177 L274,177 L274,199 L229,199 L229,177 Z" /></clipPath>
<path d="M237.434494,185.0814972 L239.4364929,185.0814972 C239.4104919,185.835495 239.332489,186.5505066 239.2154999,187.2005005 L235.861496,187.2005005 L235.861496,188.0975037 L238.9944916,188.0975037 C238.9034882,188.3834991 238.7994995,188.6564941 238.6824951,188.9295044 C238.1624908,189.9564972 237.239502,190.7754974 235.9264984,191.3995056 L236.4334869,192.1925049 C237.7984924,191.5684967 238.786499,190.6974945 239.3974915,189.5794983 C239.4234924,189.5014954 239.4624939,189.4234924 239.5144958,189.3455048 C240.8795013,190.3204956 241.9714966,191.2565002 242.7904968,192.1405029 L243.4664917,191.4775085 C242.4785004,190.5155029 241.2565002,189.5404968 239.8004913,188.5784912 C239.8524933,188.4225006 239.8914948,188.2664948 239.9434967,188.0975037 L243.4404907,188.0975037 L243.4404907,187.2005005 L240.1384888,187.2005005 C240.2424927,186.5505066 240.3204956,185.8484955 240.3464966,185.0814972 L242.8945007,185.0814972 L242.8945007,184.1974945 L240.3594971,184.1974945 L240.3594971,182.0265045 L239.4494934,182.0265045 L239.4494934,184.1974945 L237.8764954,184.1974945 C238.0844879,183.7034912 238.2534943,183.1835022 238.3834991,182.611496 L237.486496,182.4425049 C237.1744995,183.8594971 236.5894928,184.9775085 235.7054901,185.809494 L236.2774963,186.5245056 C236.7194977,186.1085052 237.1094971,185.6275024 237.434494,185.0814972 Z M233.0664978,182.1694946 L232.4164886,182.7805023 C233.3134918,183.5084991 234.0154877,184.1974945 234.5354919,184.8475037 L235.1985016,184.184494 C234.6264954,183.5084991 233.911499,182.8455048 233.0664978,182.1694946 Z M240.5414886,193.7265015 L243.5574951,193.7265015 L243.7914886,192.7904968 C243.4404907,192.8164978 242.9464874,192.8294983 242.3224945,192.8424988 C241.6725006,192.8554993 241.0354919,192.8684998 240.411499,192.8684998 C239.4104919,192.8684998 238.5784912,192.8554993 237.9024963,192.8424988 C237.1484985,192.8164978 236.5634918,192.7124939 236.1734924,192.5305023 C235.809494,192.361496 235.4844971,192.088501 235.1725006,191.7115021 C235.0684967,191.5944977 234.9774933,191.5034943 234.8734894,191.4255066 L234.8734894,186.5505066 L232.1434937,186.5505066 L232.1434937,187.4085083 L234.0024872,187.4085083 L234.0024872,191.3605042 C233.4564972,191.5944977 232.8454895,192.2705078 232.1434937,193.3755035 L232.8454895,194.0124969 C233.5735016,192.7904968 234.0934906,192.1925049 234.4054871,192.1925049 C234.5614929,192.1925049 234.7304993,192.2965088 234.8994904,192.5175018 C235.3024902,192.9855042 235.7574921,193.3105011 236.2514954,193.4664917 C236.7714996,193.6094971 237.4474945,193.6875 238.2664948,193.7005005 C239.085495,193.713501 239.8394928,193.7265015 240.5414886,193.7265015 Z M256.1934814,185.1464996 L251.9684906,185.6795044 C251.8904877,184.6264954 251.8515015,183.4044952 251.8515015,182.013504 L250.8894958,182.013504 C250.9024963,183.4434967 250.9544983,184.7044983 251.0455017,185.7965088 L248.1595001,186.1734924 L248.3024902,187.0704956 L251.1234894,186.7064972 C251.2144928,187.6685028 251.3444977,188.4615021 251.5134888,189.111496 C251.8774872,190.5675049 252.4234924,191.7505035 253.1644897,192.6604919 C253.8404999,193.4794922 254.5034943,193.8955078 255.1404877,193.8955078 C255.4915009,193.8825073 255.7904968,193.6875 256.0244751,193.3105011 C256.3104858,192.7904968 256.5314941,191.9974976 256.7005005,190.9315033 L255.8815002,190.463501 C255.6994934,192.1015015 255.4394989,192.9335022 255.088501,192.9465027 C254.6464996,192.9335022 254.1654968,192.5825043 253.658493,191.8804932 C253.0994873,191.1264954 252.6705017,190.0865021 252.35849,188.7344971 C252.2285004,188.1365051 252.1244965,187.4215088 252.0464935,186.5895081 L256.3364868,186.0435028 Z M246.5345001,186.6674957 L246.5345001,193.986496 L247.4964905,193.986496 L247.4964905,185.1985016 C248.0034943,184.3274994 248.4194946,183.3914948 248.7574921,182.4035034 L247.8864899,181.9875031 C247.236496,184.0155029 246.2094879,185.8224945 244.7794952,187.3955078 L245.0784912,188.3704987 C245.5984955,187.8244934 246.0924988,187.2655029 246.5345001,186.6674957 Z M253.2684937,182.1044922 L252.6705017,182.6894989 C253.5024872,183.4044952 254.1654968,184.0805054 254.6334991,184.7174988 L255.283493,184.0805054 C254.7374878,183.4304962 254.0614929,182.7675018 253.2684937,182.1044922 Z M259.1705017,182.5335083 L259.1705017,185.6925049 L263.135498,185.6925049 L263.135498,182.5335083 Z M262.2774963,184.8995056 L260.0155029,184.8995056 L260.0155029,183.3395081 L262.2774963,183.3395081 Z M264.5784912,182.5335083 L264.5784912,185.6925049 L268.6214905,185.6925049 L268.6214905,182.5335083 Z M267.7764893,184.8995056 L265.4364929,184.8995056 L265.4364929,183.3395081 L267.7764893,183.3395081 Z M258.1174927,186.9924927 L258.1174927,187.8244934 L261.7055054,187.8244934 C260.7955017,188.6044922 259.5214844,189.2415009 257.8574829,189.7355042 L258.286499,190.5025024 C258.6505127,190.385498 259.0014954,190.2684937 259.352478,190.138504 L259.352478,193.9734955 L260.1715088,193.9734955 L260.1715088,193.414505 L262.3945007,193.414505 L262.3945007,193.9734955 L263.2265015,193.9734955 L263.2265015,189.8784943 L259.963501,189.8784943 C261.1854858,189.3325043 262.1604919,188.6564941 262.8884888,187.8244934 L265.0855103,187.8244934 C265.7354736,188.6174927 266.6975098,189.3065033 267.9454956,189.8784943 L264.4744873,189.8784943 L264.4744873,193.9734955 L265.306488,193.9734955 L265.306488,193.414505 L267.7374878,193.414505 L267.7374878,193.9734955 L268.5694885,193.9734955 L268.5694885,190.1515045 C268.8554993,190.2554932 269.15448,190.3724976 269.4794922,190.4765015 L269.8565063,189.6835022 C268.1795044,189.2285004 266.9184875,188.6044922 266.0734863,187.8244934 L269.5834961,187.8244934 L269.5834961,186.9924927 L267.7894897,186.9924927 C267.5814819,186.5895081 267.3474731,186.2124939 267.0744934,185.8484955 L266.2814941,186.1085052 C266.489502,186.3684998 266.6845093,186.6674957 266.8665161,186.9924927 L263.5125122,186.9924927 C263.6944885,186.6804962 263.8634949,186.3684998 263.9934998,186.0305023 L263.0964966,185.9394989 C262.9404907,186.3034973 262.7454834,186.6544952 262.4984741,186.9924927 Z M260.1715088,192.6085052 L260.1715088,190.6585083 L262.3945007,190.6585083 L262.3945007,192.6085052 Z M265.306488,192.6085052 L265.306488,190.6585083 L267.7374878,190.6585083 L267.7374878,192.6085052 Z M270.3504944,192.6604919" style="fill:rgb(23,55,94);stroke:none" clip-path="url(#clip26)" />
<clipPath id="clip27"><path d="M160,236 L233,236 L233,276 L160,276 L160,236 Z" /></clipPath>
<path d="M167,238 C164.2385712,238 162,240.2385712 162,243 L162,268 C162,270.7614136 164.2385712,273 167,273 L225,273 C227.7614288,273 230,270.7614136 230,268 L230,243 C230,240.2385712 227.7614288,238 225,238 Z M167,238" style="fill:rgb(220,230,242);stroke:none" clip-path="url(#clip27)" />
<clipPath id="clip28"><path d="M160,236 L233,236 L233,276 L160,276 L160,236 Z" /></clipPath>
<path d="M167,238 C164.2385712,238 162,240.2385712 162,243 L162,268 C162,270.7614136 164.2385712,273 167,273 L225,273 C227.7614288,273 230,270.7614136 230,268 L230,243 C230,240.2385712 227.7614288,238 225,238 Z M167,238" style="fill:none;stroke:rgb(85,142,213);stroke-width:2" clip-path="url(#clip28)" />
<clipPath id="clip29"><path d="M174,245 L219,245 L219,267 L174,267 L174,245 Z" /></clipPath>
<path d="M178.0274963,250.1174927 L177.3775024,250.7285004 C178.3265076,251.4694977 179.0675049,252.1585083 179.6004944,252.8085022 L180.2374878,252.1714935 C179.6394958,251.4954987 178.8984985,250.806488 178.0274963,250.1174927 Z M185.5935059,261.6224976 L188.635498,261.6224976 L188.8435059,260.7514954 C188.5054932,260.7774963 188.0115051,260.7904968 187.3744965,260.8034973 C186.7244873,260.8034973 186.1004944,260.8164978 185.4765015,260.8164978 C184.4624939,260.8164978 183.6044922,260.8034973 182.9154968,260.7904968 C182.135498,260.7644958 181.5505066,260.6734924 181.1474915,260.4915161 C180.783493,260.3095093 180.4454956,260.036499 180.1334991,259.6464844 C180.0294952,259.52948 179.9255066,259.4255066 179.8215027,259.3475037 L179.8215027,254.4855042 L177.1044922,254.4855042 L177.1044922,255.3435059 L178.9505005,255.3435059 L178.9505005,259.2955017 C178.4044952,259.52948 177.7934875,260.1925049 177.0914917,261.2974854 L177.7934875,261.9345093 C178.5214996,260.7254944 179.0415039,260.1275024 179.3664856,260.1275024 C179.5224915,260.1275024 179.6914978,260.2315063 179.8735046,260.4525146 C180.2764893,260.9075012 180.7315063,261.2064819 181.2384949,261.3624878 C181.7584991,261.5054932 182.4474945,261.5834961 183.2794952,261.5964966 C184.111496,261.6094971 184.8914948,261.6224976 185.5935059,261.6224976 Z M180.8484955,253.6015015 L180.8484955,254.4595032 L184.2284851,254.4595032 L184.2284851,256.0455017 L181.7324982,256.0455017 L181.7324982,259.8154907 L187.634491,259.8154907 L187.634491,256.0455017 L185.1254883,256.0455017 L185.1254883,254.4595032 L188.5444946,254.4595032 L188.5444946,253.6015015 L185.1254883,253.6015015 L185.1254883,251.6384888 C186.2304993,251.4564972 187.2055054,251.1835022 188.0505066,250.8194885 L187.60849,250.0654907 C185.8274994,250.7415009 183.5784912,251.0924988 180.8744965,251.0924988 L181.1604919,251.9375 C182.2525024,251.9375 183.2794952,251.8724976 184.2284851,251.7684937 L184.2284851,253.6015015 Z M186.7504883,258.9964905 L182.6034851,258.9964905 L182.6034851,256.864502 L186.7504883,256.864502 Z M201.8045044,258.411499 L200.8815002,258.1124878 C200.8424988,259.1524963 200.7774963,259.8544922 200.6734924,260.2055054 C200.5694885,260.5694885 200.335495,260.7514954 199.9714966,260.7514954 L197.9304962,260.7514954 C197.6575012,260.7384949 197.5274963,260.5044861 197.5274963,260.0625 L197.5274963,255.7984924 L201.0765076,255.7984924 L201.0765076,250.5335083 L196.3964996,250.5335083 L196.3964996,251.4174957 L200.1665039,251.4174957 L200.1665039,254.8884888 L196.6174927,254.8884888 L196.6174927,260.4005127 C196.6174927,261.2194824 196.9295044,261.635498 197.5534973,261.635498 L200.1275024,261.635498 C200.7514954,261.635498 201.1544952,261.4274902 201.3624878,261.0375061 C201.5704956,260.634491 201.713501,259.7634888 201.8045044,258.411499 Z M190.0524902,250.5205078 L190.0524902,251.4044952 L191.8074951,251.4044952 L191.8074951,252.9125061 L190.3905029,252.9125061 L190.3905029,261.8435059 L191.2225037,261.8435059 L191.2225037,261.1414795 L194.9274902,261.1414795 L194.9274902,261.8435059 L195.759491,261.8435059 L195.759491,252.9125061 L194.2774963,252.9125061 L194.2774963,251.4044952 L195.9674988,251.4044952 L195.9674988,250.5205078 Z M191.2225037,260.2575073 L191.2225037,258.9964905 L194.9274902,258.9964905 L194.9274902,260.2575073 Z M191.989502,253.7705078 L191.989502,254.6154938 C191.9765015,255.8114929 191.7424927,256.6694946 191.2745056,257.2155151 L191.7684937,257.6705017 C192.3144989,257.0205078 192.6004944,256.0065002 192.6264954,254.6154938 L192.6264954,253.7705078 L193.4454956,253.7705078 L193.4454956,256.1105042 C193.4454956,256.7084961 193.7185059,257.0075073 194.2644958,257.0075073 L194.9274902,257.0075073 L194.9274902,258.1384888 L191.2225037,258.1384888 L191.2225037,253.7705078 Z M192.6134949,252.9125061 L192.6134949,251.4044952 L193.4714966,251.4044952 L193.4714966,252.9125061 Z M194.9274902,256.27948 L194.4205017,256.27948 C194.1994934,256.27948 194.0954895,256.1625061 194.0954895,255.9414978 L194.0954895,253.7705078 L194.9274902,253.7705078 Z M204.2225037,250.4685059 L204.2225037,253.6275024 L208.1875,253.6275024 L208.1875,250.4685059 Z M207.3294983,252.8345032 L205.0675049,252.8345032 L205.0675049,251.2745056 L207.3294983,251.2745056 Z M209.6304932,250.4685059 L209.6304932,253.6275024 L213.6734924,253.6275024 L213.6734924,250.4685059 Z M212.8284912,252.8345032 L210.4884949,252.8345032 L210.4884949,251.2745056 L212.8284912,251.2745056 Z M203.1694946,254.9274902 L203.1694946,255.759491 L206.7575073,255.759491 C205.8475037,256.5394897 204.5734863,257.1765137 202.9095001,257.6705017 L203.338501,258.4375 C203.7024994,258.3204956 204.0534973,258.2034912 204.4044952,258.0734863 L204.4044952,261.9085083 L205.2234955,261.9085083 L205.2234955,261.3494873 L207.4465027,261.3494873 L207.4465027,261.9085083 L208.2785034,261.9085083 L208.2785034,257.8135071 L205.0155029,257.8135071 C206.2374878,257.2674866 207.2124939,256.5914917 207.9404907,255.759491 L210.1374969,255.759491 C210.7875061,256.5524902 211.7494965,257.2415161 212.9974976,257.8135071 L209.5264893,257.8135071 L209.5264893,261.9085083 L210.35849,261.9085083 L210.35849,261.3494873 L212.7894897,261.3494873 L212.7894897,261.9085083 L213.6214905,261.9085083 L213.6214905,258.0864868 C213.9075012,258.1904907 214.2064972,258.3074951 214.5314941,258.411499 L214.908493,257.6184998 C213.2315063,257.1635132 211.9704895,256.5394897 211.1254883,255.759491 L214.635498,255.759491 L214.635498,254.9274902 L212.8414917,254.9274902 C212.6334991,254.5245056 212.3995056,254.1474915 212.1264954,253.7835083 L211.3334961,254.0434875 C211.5415039,254.3034973 211.736496,254.6025085 211.9184875,254.9274902 L208.5644989,254.9274902 C208.7464905,254.6154938 208.9154968,254.3034973 209.0455017,253.9654999 L208.1484985,253.8744965 C207.9924927,254.2384949 207.7974854,254.5895081 207.5505066,254.9274902 Z M205.2234955,260.5434875 L205.2234955,258.5935059 L207.4465027,258.5935059 L207.4465027,260.5434875 Z M210.35849,260.5434875 L210.35849,258.5935059 L212.7894897,258.5935059 L212.7894897,260.5434875 Z M215.4024963,260.5954895" style="fill:rgb(23,55,94);stroke:none" clip-path="url(#clip29)" />
</svg>
