<svg xmlns="http://www.w3.org/2000/svg" xmlns:xlink="http://www.w3.org/1999/xlink" contentStyleType="text/css" height="697px" preserveAspectRatio="none" style="width:467px;height:697px;background:#FFFFFF;" version="1.1" viewBox="0 0 467 697" width="467px" zoomAndPan="magnify"><defs/><g><rect fill="none" height="75.3984" style="stroke:#000000;stroke-width:1.5;" width="316.4883" x="10" y="554.2891"/><line style="stroke:#181818;stroke-width:0.5;stroke-dasharray:5.0,5.0;" x1="47" x2="47" y1="36.2969" y2="646.6875"/><line style="stroke:#181818;stroke-width:0.5;stroke-dasharray:5.0,5.0;" x1="285.5781" x2="285.5781" y1="36.2969" y2="646.6875"/><rect fill="#E2E2F0" height="30.2969" rx="2.5" ry="2.5" style="stroke:#181818;stroke-width:0.5;" width="54.5303" x="20" y="5"/><text fill="#000000" font-family="sans-serif" font-size="14" lengthAdjust="spacing" textLength="40.5303" x="27" y="24.9951">Client</text><rect fill="#E2E2F0" height="30.2969" rx="2.5" ry="2.5" style="stroke:#181818;stroke-width:0.5;" width="54.5303" x="20" y="645.6875"/><text fill="#000000" font-family="sans-serif" font-size="14" lengthAdjust="spacing" textLength="40.5303" x="27" y="665.6826">Client</text><rect fill="#E2E2F0" height="30.2969" rx="2.5" ry="2.5" style="stroke:#181818;stroke-width:0.5;" width="59.9102" x="256.5781" y="5"/><text fill="#000000" font-family="sans-serif" font-size="14" lengthAdjust="spacing" textLength="45.9102" x="263.5781" y="24.9951">Server</text><rect fill="#E2E2F0" height="30.2969" rx="2.5" ry="2.5" style="stroke:#181818;stroke-width:0.5;" width="59.9102" x="256.5781" y="645.6875"/><text fill="#000000" font-family="sans-serif" font-size="14" lengthAdjust="spacing" textLength="45.9102" x="263.5781" y="665.6826">Server</text><rect fill="#EEEEEE" height="3" style="stroke:#EEEEEE;stroke-width:1;" width="460.855" x="0" y="66.8633"/><line style="stroke:#000000;stroke-width:1;" x1="0" x2="460.855" y1="66.8633" y2="66.8633"/><line style="stroke:#000000;stroke-width:1;" x1="0" x2="460.855" y1="69.8633" y2="69.8633"/><rect fill="#EEEEEE" height="23.1328" style="stroke:#000000;stroke-width:2;" width="221.4985" x="119.6782" y="56.2969"/><text fill="#000000" font-family="sans-serif" font-size="13" font-weight="bold" lengthAdjust="spacing" textLength="202.9727" x="125.6782" y="72.3638">IKE Phase 1 (Slow &amp; Heavy)</text><path d="M21,94.4297 L21,119.4297 L312,119.4297 L312,104.4297 L302,94.4297 L21,94.4297 " fill="#FEFFDD" style="stroke:#181818;stroke-width:0.5;"/><path d="M302,94.4297 L302,104.4297 L312,104.4297 L302,94.4297 " fill="#FEFFDD" style="stroke:#181818;stroke-width:0.5;"/><text fill="#000000" font-family="sans-serif" font-size="13" lengthAdjust="spacing" textLength="260.3555" x="32.0664" y="111.4966">Authentication and Initial Key Exchange</text><polygon fill="#181818" points="274.5332,152.2617,284.5332,156.2617,274.5332,160.2617,278.5332,156.2617" style="stroke:#181818;stroke-width:1;"/><line style="stroke:#181818;stroke-width:1;" x1="47.2651" x2="280.5332" y1="156.2617" y2="156.2617"/><text fill="#000000" font-family="sans-serif" font-size="13" lengthAdjust="spacing" textLength="193.0576" x="70.3704" y="151.1958">Initial Authentication Request</text><path d="M291,129.5625 L291,169.5625 L450,169.5625 L450,139.5625 L440,129.5625 L291,129.5625 " fill="#FEFFDD" style="stroke:#181818;stroke-width:0.5;"/><path d="M440,129.5625 L440,139.5625 L450,139.5625 L440,129.5625 " fill="#FEFFDD" style="stroke:#181818;stroke-width:0.5;"/><text fill="#000000" font-family="sans-serif" font-size="13" lengthAdjust="spacing" textLength="138.3218" x="297" y="146.6294">Using Pre-shared key</text><text fill="#000000" font-family="sans-serif" font-size="13" lengthAdjust="spacing" textLength="84.957" x="297" y="161.7622">or Certificate</text><polygon fill="#181818" points="58.2651,191.9609,48.2651,195.9609,58.2651,199.9609,54.2651,195.9609" style="stroke:#181818;stroke-width:1;"/><line style="stroke:#181818;stroke-width:1;stroke-dasharray:2.0,2.0;" x1="52.2651" x2="285.5332" y1="195.9609" y2="195.9609"/><text fill="#000000" font-family="sans-serif" font-size="13" lengthAdjust="spacing" textLength="162.5825" x="85.6079" y="190.895">Authentication Response</text><polygon fill="#181818" points="274.5332,221.0938,284.5332,225.0938,274.5332,229.0938,278.5332,225.0938" style="stroke:#181818;stroke-width:1;"/><line style="stroke:#181818;stroke-width:1;" x1="47.2651" x2="280.5332" y1="225.0938" y2="225.0938"/><text fill="#000000" font-family="sans-serif" font-size="13" lengthAdjust="spacing" textLength="215.2681" x="59.2651" y="220.0278">Begin Asymmetric Key Exchange</text><path d="M21,238.0938 L21,263.0938 L312,263.0938 L312,248.0938 L302,238.0938 L21,238.0938 " fill="#FEFFDD" style="stroke:#181818;stroke-width:0.5;"/><path d="M302,238.0938 L302,248.0938 L312,248.0938 L302,238.0938 " fill="#FEFFDD" style="stroke:#181818;stroke-width:0.5;"/><text fill="#000000" font-family="sans-serif" font-size="13" lengthAdjust="spacing" textLength="191.1914" x="66.6484" y="255.1606">Using asymmetric encryption</text><polygon fill="#181818" points="58.2651,285.3594,48.2651,289.3594,58.2651,293.3594,54.2651,289.3594" style="stroke:#181818;stroke-width:1;"/><line style="stroke:#181818;stroke-width:1;stroke-dasharray:2.0,2.0;" x1="52.2651" x2="285.5332" y1="289.3594" y2="289.3594"/><text fill="#000000" font-family="sans-serif" font-size="13" lengthAdjust="spacing" textLength="158.8818" x="87.4583" y="284.2935">Complete Key Exchange</text><path d="M21,302.3594 L21,327.3594 L312,327.3594 L312,312.3594 L302,302.3594 L21,302.3594 " fill="#ADD8E6" style="stroke:#181818;stroke-width:0.5;"/><path d="M302,302.3594 L302,312.3594 L312,312.3594 L302,302.3594 " fill="#ADD8E6" style="stroke:#181818;stroke-width:0.5;"/><text fill="#000000" font-family="sans-serif" font-size="13" lengthAdjust="spacing" textLength="211.6118" x="56.4382" y="319.4263">IKE SA Created (Phase 1 Tunnel)</text><rect fill="#EEEEEE" height="3" style="stroke:#EEEEEE;stroke-width:1;" width="460.855" x="0" y="353.0586"/><line style="stroke:#000000;stroke-width:1;" x1="0" x2="460.855" y1="353.0586" y2="353.0586"/><line style="stroke:#000000;stroke-width:1;" x1="0" x2="460.855" y1="356.0586" y2="356.0586"/><rect fill="#EEEEEE" height="23.1328" style="stroke:#000000;stroke-width:2;" width="210.022" x="125.4165" y="342.4922"/><text fill="#000000" font-family="sans-serif" font-size="13" font-weight="bold" lengthAdjust="spacing" textLength="191.4961" x="131.4165" y="358.5591">IKE Phase 2 (Fast &amp; Agile)</text><path d="M21,380.625 L21,405.625 L312,405.625 L312,390.625 L302,380.625 L21,380.625 " fill="#FEFFDD" style="stroke:#181818;stroke-width:0.5;"/><path d="M302,380.625 L302,390.625 L312,390.625 L302,380.625 " fill="#FEFFDD" style="stroke:#181818;stroke-width:0.5;"/><text fill="#000000" font-family="sans-serif" font-size="13" lengthAdjust="spacing" textLength="160.5386" x="81.9749" y="397.6919">Using keys from Phase 1</text><polygon fill="#181818" points="274.5332,427.8906,284.5332,431.8906,274.5332,435.8906,278.5332,431.8906" style="stroke:#181818;stroke-width:1;"/><line style="stroke:#181818;stroke-width:1;" x1="47.2651" x2="280.5332" y1="431.8906" y2="431.8906"/><text fill="#000000" font-family="sans-serif" font-size="13" lengthAdjust="spacing" textLength="190.5122" x="71.6431" y="426.8247">Negotiate Encryption Method</text><polygon fill="#181818" points="58.2651,457.0234,48.2651,461.0234,58.2651,465.0234,54.2651,461.0234" style="stroke:#181818;stroke-width:1;"/><line style="stroke:#181818;stroke-width:1;stroke-dasharray:2.0,2.0;" x1="52.2651" x2="285.5332" y1="461.0234" y2="461.0234"/><text fill="#000000" font-family="sans-serif" font-size="13" lengthAdjust="spacing" textLength="182.127" x="75.8357" y="455.9575">Agree on Encryption &amp; Keys</text><path d="M21,474.0234 L21,499.0234 L312,499.0234 L312,484.0234 L302,474.0234 L21,474.0234 " fill="#FFA500" style="stroke:#181818;stroke-width:0.5;"/><path d="M302,474.0234 L302,484.0234 L312,484.0234 L302,474.0234 " fill="#FFA500" style="stroke:#181818;stroke-width:0.5;"/><text fill="#000000" font-family="sans-serif" font-size="13" lengthAdjust="spacing" textLength="228.2554" x="48.1165" y="491.0903">IPSEC SA Created (Phase 2 Tunnel)</text><rect fill="#EEEEEE" height="3" style="stroke:#EEEEEE;stroke-width:1;" width="460.855" x="0" y="524.7227"/><line style="stroke:#000000;stroke-width:1;" x1="0" x2="460.855" y1="524.7227" y2="524.7227"/><line style="stroke:#000000;stroke-width:1;" x1="0" x2="460.855" y1="527.7227" y2="527.7227"/><rect fill="#EEEEEE" height="23.1328" style="stroke:#000000;stroke-width:2;" width="226.3608" x="117.2471" y="514.1563"/><text fill="#000000" font-family="sans-serif" font-size="13" font-weight="bold" lengthAdjust="spacing" textLength="207.835" x="123.2471" y="530.2231">Secure Data Communication</text><path d="M10,554.2891 L156.0039,554.2891 L156.0039,561.4219 L146.0039,571.4219 L10,571.4219 L10,554.2891 " fill="#EEEEEE" style="stroke:#000000;stroke-width:1.5;"/><rect fill="none" height="75.3984" style="stroke:#000000;stroke-width:1.5;" width="316.4883" x="10" y="554.2891"/><text fill="#000000" font-family="sans-serif" font-size="13" font-weight="bold" lengthAdjust="spacing" textLength="101.0039" x="25" y="567.356">Data Transfer</text><polygon fill="#181818" points="274.5332,588.5547,284.5332,592.5547,274.5332,596.5547,278.5332,592.5547" style="stroke:#181818;stroke-width:1;"/><line style="stroke:#181818;stroke-width:1;" x1="47.2651" x2="280.5332" y1="592.5547" y2="592.5547"/><text fill="#000000" font-family="sans-serif" font-size="13" lengthAdjust="spacing" textLength="159.7261" x="87.0361" y="587.4888">Encrypted Data Transfer</text><polygon fill="#181818" points="58.2651,617.6875,48.2651,621.6875,58.2651,625.6875,54.2651,621.6875" style="stroke:#181818;stroke-width:1;"/><line style="stroke:#181818;stroke-width:1;stroke-dasharray:2.0,2.0;" x1="52.2651" x2="285.5332" y1="621.6875" y2="621.6875"/><text fill="#000000" font-family="sans-serif" font-size="13" lengthAdjust="spacing" textLength="133.3896" x="100.2043" y="616.6216">Encrypted Response</text><text fill="#888888" font-family="sans-serif" font-size="10" lengthAdjust="spacing" textLength="127.1875" x="166.3337" y="687.2666">IPSEC Two-Phase Process</text><!--SRC=[RPD1Rzim38Nl-XL41nGfi1pMOu0CaBqCAxfkmPpTTj5aHXOYKvuaD_E_7zNKJjpCHv5yUj-Z70-MEXLK2x-LFfZWUwfBxto0OsCJYZZL8_xfaJG-OOpAe7JM46YaX448RabMsqvHWflIMJw-0HL1pYiLXcSCBvL2YFKQ7Xuti6rKHFW0Yyhv8zp25rJFmnsiru9yGl0y0V8z52kGVMfOsMgLh2TGLCC3sMILWqSSOFDNDueC2Y5X-J4FZDKtWpyoIamd_M1DarRmCreoi0suZ8qAMCC1Xr_4EPJ80FiyYgA09GlBrRLWx3p5YviBD9P0ng5jCGMhvmOlmOhnRdLkvfp3q6NfyvMbRpk7F3T7dKd1kw-Pfd0zhbwohIIK0Tbw3OinvrrFXExkJVxtiFYiOkByfR4Eh_AVR78k4VR1j-FYpj3Vq7ZEcuSs4m0yOMfyVH6T2SYgTDbpcw7Y5Spta1cPP5jjol-mtCzOAjHzGFYaaifXjJsDws6K_BAxKst7gd7FhnRu6ws_cc7jwvx9-hbfMZXIBSJUi-_mQdDtzCkJlMtmcd-MVm00]--></g></svg>